<?xml version="1.0" encoding="UTF-8"?>
<svg version="1.1" xmlns="http://www.w3.org/2000/svg" width="123" height="128">
<path d="M0 0 C0.59167969 0.0721875 1.18335937 0.144375 1.79296875 0.21875 C2.58316406 0.3115625 3.37335937 0.404375 4.1875 0.5 C5.35345703 0.63921875 5.35345703 0.63921875 6.54296875 0.78125 C9.04236386 1.00377166 11.49213246 1.03563577 14 1 C14.01458252 1.61520508 14.02916504 2.23041016 14.04418945 2.86425781 C14.11880577 5.66012854 14.2154198 8.45482287 14.3125 11.25 C14.33505859 12.21808594 14.35761719 13.18617187 14.38085938 14.18359375 C14.41630859 15.11816406 14.45175781 16.05273438 14.48828125 17.015625 C14.51446533 17.87446289 14.54064941 18.73330078 14.56762695 19.61816406 C15.0894387 22.49269561 16.00315288 23.88801245 18 26 C21.49208181 27.16402727 24.39147772 27.21118508 28.07421875 27.31640625 C28.7580513 27.33718735 29.44188385 27.35796844 30.1464386 27.37937927 C32.3266921 27.44466154 34.50706405 27.50366017 36.6875 27.5625 C38.16732986 27.60570553 39.64714783 27.64932047 41.12695312 27.69335938 C44.75118254 27.80109025 48.37550438 27.90032107 52 28 C52 32.62 52 37.24 52 42 C47.16198021 42.07463717 42.32430196 42.12883014 37.48583984 42.16479492 C35.84287674 42.17980136 34.19995314 42.20021312 32.55712891 42.22631836 C30.18381958 42.26306359 27.81104375 42.27980772 25.4375 42.29296875 C24.71320801 42.30845261 23.98891602 42.32393646 23.24267578 42.33988953 C15.85450364 42.34228069 9.4117481 40.25712672 4 35 C0.47191585 29.95987978 -0.12744047 25.99785598 -0.09765625 19.921875 C-0.09443359 18.76171875 -0.09121094 17.6015625 -0.08789062 16.40625 C-0.07951172 15.1996875 -0.07113281 13.993125 -0.0625 12.75 C-0.05798828 11.52796875 -0.05347656 10.3059375 -0.04882812 9.046875 C-0.03704815 6.03120054 -0.02059853 3.01562502 0 0 Z " fill="#1D81BD" transform="translate(26,47)"/>
<path d="M0 0 C4.16684313 -0.05419305 8.33297365 -0.09376961 12.5 -0.125 C14.25957031 -0.15013672 14.25957031 -0.15013672 16.0546875 -0.17578125 C32.28389013 -0.26695655 32.28389013 -0.26695655 38.3125 5.1875 C38.94800781 5.73792969 39.58351562 6.28835937 40.23828125 6.85546875 C44.73176707 12.32536613 45.42894795 17.67076651 45.1875 24.4375 C45.16719727 25.53481445 45.16719727 25.53481445 45.14648438 26.65429688 C45.11153874 28.43652422 45.05774805 30.21836573 45 32 C40.38 32 35.76 32 31 32 C30.8046875 29.265625 30.609375 26.53125 30.4140625 23.796875 C30.01089652 21.07360292 29.47210492 19.30876887 28 17 C25.37276604 15.68638302 23.27389439 15.78746091 20.3359375 15.68359375 C19.21445313 15.64169922 18.09296875 15.59980469 16.9375 15.55664062 C15.761875 15.51732422 14.58625 15.47800781 13.375 15.4375 C12.19164062 15.39431641 11.00828125 15.35113281 9.7890625 15.30664062 C6.85952093 15.20032662 3.92977623 15.09963783 1 15 C0.67 10.05 0.34 5.1 0 0 Z " fill="#343067" transform="translate(49,23)"/>
<path d="M0 0 C2.9375 2.125 2.9375 2.125 5 5 C5.55878277 8.91147941 5.23182354 11.71099688 3 15 C-0.75047482 17.50031654 -2.55856266 17.53603554 -7 17 C-9.93602134 15.00100675 -11.62130844 13.55479057 -12.48046875 10.02734375 C-12.73661074 6.32366903 -12.29738696 4.36046904 -9.9375 1.5 C-6.22693494 -0.39475662 -4.11629392 -0.66154724 0 0 Z " fill="#1980BD" transform="translate(37,23)"/>
<path d="M0 0 C0.66 0.33 1.32 0.66 2 1 C2 6.28 2 11.56 2 17 C-2.62 17 -7.24 17 -12 17 C-12 13.37 -12 9.74 -12 6 C-11.67 6 -11.34 6 -11 6 C-10.34 8.64 -9.68 11.28 -9 14 C-7.329375 13.9690625 -7.329375 13.9690625 -5.625 13.9375 C-2 14 -2 14 0 15 C0 10.05 0 5.1 0 0 Z " fill="#46436B" transform="translate(92,38)"/>
<path d="M0 0 C0.66 0.66 1.32 1.32 2 2 C-0.64 1.67 -3.28 1.34 -6 1 C-6.33 2.65 -6.66 4.3 -7 6 C-7.66 5.67 -8.32 5.34 -9 5 C-9.2165625 6.3921875 -9.2165625 6.3921875 -9.4375 7.8125 C-10 11 -10 11 -11 14 C-12.60902074 10.78195852 -12.59842983 7.48052295 -12 4 C-8.49312758 -0.25075444 -5.34134086 -0.6046801 0 0 Z " fill="#3584B0" transform="translate(37,23)"/>
<path d="M0 0 C1.65 0 3.3 0 5 0 C5 2.31 5 4.62 5 7 C3.0625 7.5625 3.0625 7.5625 1 8 C0 7 0 7 -0.0625 3.4375 C-0.041875 2.303125 -0.02125 1.16875 0 0 Z " fill="#808A98" transform="translate(102,102)"/>
<path d="M0 0 C1.65 0 3.3 0 5 0 C5 1.65 5 3.3 5 5 C3.0625 5.5625 3.0625 5.5625 1 6 C0 5 0 5 -0.0625 2.4375 C-0.041875 1.633125 -0.02125 0.82875 0 0 Z " fill="#9198A7" transform="translate(30,102)"/>
<path d="M0 0 C1.32 0 2.64 0 4 0 C4 1.65 4 3.3 4 5 C3.01 5.33 2.02 5.66 1 6 C0.34 5.67 -0.32 5.34 -1 5 C-0.67 3.35 -0.34 1.7 0 0 Z " fill="#939AA8" transform="translate(63,102)"/>
<path d="M0 0 C1.32 0 2.64 0 4 0 C4 1.65 4 3.3 4 5 C2.68 5 1.36 5 0 5 C-0.33 4.01 -0.66 3.02 -1 2 C-0.67 1.34 -0.34 0.68 0 0 Z " fill="#717C88" transform="translate(42,102)"/>
<path d="M0 0 C-3.6441774 2.4294516 -5.71241272 2.16179575 -10 2 C-10.33 1.34 -10.66 0.68 -11 0 C-3.57142857 -1.28571429 -3.57142857 -1.28571429 0 0 Z " fill="#3C8AB4" transform="translate(40,38)"/>
<path d="M0 0 C0.33 1.32 0.66 2.64 1 4 C1.66 4 2.32 4 3 4 C3 2.68 3 1.36 3 0 C3.66 0 4.32 0 5 0 C5 1.65 5 3.3 5 5 C3.0625 5.5625 3.0625 5.5625 1 6 C0 5 0 5 -0.0625 2.4375 C-0.041875 1.633125 -0.02125 0.82875 0 0 Z " fill="#717983" transform="translate(80,102)"/>
<path d="M0 0 C0.99 0.66 1.98 1.32 3 2 C2.01 2.33 1.02 2.66 0 3 C-0.73323796 5.01508358 -0.73323796 5.01508358 -1 7 C0.98 7.495 0.98 7.495 3 8 C2.01 8.33 1.02 8.66 0 9 C-0.66 8.67 -1.32 8.34 -2 8 C-2.125 5.125 -2.125 5.125 -2 2 C-1.34 1.34 -0.68 0.68 0 0 Z " fill="#727682" transform="translate(58,99)"/>
<path d="M0 0 C1.65 0 3.3 0 5 0 C5 1.98 5 3.96 5 6 C4.67 6 4.34 6 4 6 C4 4.35 4 2.7 4 1 C3.34 1.66 2.68 2.32 2 3 C2 3.66 2 4.32 2 5 C1.34 5 0.68 5 0 5 C0 3.35 0 1.7 0 0 Z " fill="#707885" transform="translate(17,102)"/>
<path d="M0 0 C2.475 0.495 2.475 0.495 5 1 C5 2.32 5 3.64 5 5 C4.34 5 3.68 5 3 5 C3 3.68 3 2.36 3 1 C2.34 1 1.68 1 1 1 C1 2.65 1 4.3 1 6 C0.67 6 0.34 6 0 6 C0 4.02 0 2.04 0 0 Z " fill="#6E7583" transform="translate(96,102)"/>
<path d="M0 0 C0.99 0.33 1.98 0.66 3 1 C3.6875 3.0625 3.6875 3.0625 4 5 C2.68 5.33 1.36 5.66 0 6 C0 4.02 0 2.04 0 0 Z " fill="#7B848D" transform="translate(75,102)"/>
<path d="M0 0 C1.32 0.33 2.64 0.66 4 1 C4 2.65 4 4.3 4 6 C2.68 5.67 1.36 5.34 0 5 C0 3.35 0 1.7 0 0 Z " fill="#687584" transform="translate(48,102)"/>
<path d="M0 0 C1.5625 1.1875 1.5625 1.1875 3 3 C2.6875 5.6875 2.6875 5.6875 2 8 C1.34 7.67 0.68 7.34 0 7 C0 4.69 0 2.38 0 0 Z " fill="#7A8493" transform="translate(89,100)"/>
<path d="M0 0 C0.66 0.66 1.32 1.32 2 2 C2.33 1.34 2.66 0.68 3 0 C3.66 0.33 4.32 0.66 5 1 C4.34 2.65 3.68 4.3 3 6 C1.5 4.6875 1.5 4.6875 0 3 C0 2.01 0 1.02 0 0 Z " fill="#646D79" transform="translate(36,102)"/>
<path d="M0 0 C0.66 0 1.32 0 2 0 C2 2.31 2 4.62 2 7 C1.34 7 0.68 7 0 7 C0 4.69 0 2.38 0 0 Z " fill="#898D9D" transform="translate(14,100)"/>
<path d="M0 0 C1.32 0 2.64 0 4 0 C4.33 0.99 4.66 1.98 5 3 C4.34 3.66 3.68 4.32 3 5 C3 3.68 3 2.36 3 1 C2.34 1 1.68 1 1 1 C0.67 2.32 0.34 3.64 0 5 C0 3.35 0 1.7 0 0 Z " fill="#626978" transform="translate(24,102)"/>
<path d="M0 0 C1.32 0 2.64 0 4 0 C4 1.65 4 3.3 4 5 C3.67 3.68 3.34 2.36 3 1 C2.34 1 1.68 1 1 1 C0.67 2.32 0.34 3.64 0 5 C0 3.35 0 1.7 0 0 Z " fill="#5A6174" transform="translate(69,102)"/>
<path d="M0 0 C0.33 0 0.66 0 1 0 C1 2.97 1 5.94 1 9 C0.67 9 0.34 9 0 9 C0 6.03 0 3.06 0 0 Z " fill="#727889" transform="translate(86,99)"/>
<path d="M0 0 C0.33 0 0.66 0 1 0 C1 1.98 1 3.96 1 6 C0.67 6 0.34 6 0 6 C0 4.02 0 2.04 0 0 Z " fill="#5C616A" transform="translate(93,102)"/>
<path d="" fill="#8B8C91" transform="translate(0,0)"/>
</svg>
